<svg width="653" height="667" viewBox="0 0 653 667" fill="none" xmlns="http://www.w3.org/2000/svg">
<path d="M25.1526 423.867L42.4073 488.263C62.549 563.43 72.6196 601.017 95.4503 625.393C113.477 644.64 136.807 658.11 162.489 664.097C195.015 671.68 232.599 661.61 307.77 641.467C382.937 621.327 420.523 611.257 444.9 588.427C446.923 586.53 448.88 584.577 450.777 582.567C439.637 581.633 428.4 579.84 416.98 577.57C393.777 572.957 366.207 565.567 333.6 556.83L330.04 555.877L329.213 555.657C293.737 546.15 264.094 538.19 240.426 529.64C215.536 520.65 192.92 509.567 173.716 491.58C147.251 466.793 128.731 434.713 120.497 399.4C114.522 373.777 116.23 348.647 120.889 322.597C125.353 297.633 133.37 267.717 142.975 231.871L160.788 165.391L161.415 163.053C97.3966 180.299 63.7003 190.502 41.229 211.549C21.9816 229.575 8.51231 252.905 2.52431 278.587C-5.05969 311.113 5.01097 348.697 25.1526 423.867Z" fill="#00FF95"/>
<path fill-rule="evenodd" clip-rule="evenodd" d="M627.643 290.513L610.387 354.91C590.247 430.08 580.173 467.663 557.343 492.04C539.317 511.287 515.987 524.757 490.307 530.743C487.097 531.493 483.84 532.07 480.5 532.48C449.997 536.243 412.78 526.27 345.027 508.117C269.857 487.973 232.272 477.903 207.896 455.073C188.648 437.047 175.179 413.717 169.191 388.033C161.607 355.507 171.678 317.923 191.819 242.754L209.074 178.359C211.97 167.551 214.66 157.513 217.207 148.187C232.376 92.6523 242.57 62.0993 262.117 41.229C280.143 21.9816 303.473 8.51231 329.157 2.52431C361.68 -5.05969 399.267 5.01097 474.437 25.1526C549.603 45.2943 587.19 55.365 611.567 78.1956C630.813 96.2226 644.283 119.552 650.27 145.234C657.853 177.76 647.783 215.345 627.643 290.513ZM301.747 260.196C305.32 246.86 319.03 238.945 332.367 242.519L493.353 285.657C506.69 289.23 514.603 302.937 511.03 316.273C507.457 329.61 493.75 337.523 480.413 333.95L319.423 290.813C306.087 287.24 298.173 273.533 301.747 260.196ZM275.853 356.777C279.427 343.44 293.133 335.527 306.47 339.1L403.063 364.983C416.4 368.557 424.313 382.263 420.74 395.6C417.167 408.937 403.46 416.853 390.123 413.28L293.53 387.397C280.193 383.823 272.277 370.113 275.853 356.777Z" fill="#00FF95"/>
</svg>
